<svg xmlns="http://www.w3.org/2000/svg" width="80.708" height="91" viewBox="0 0 80.708 91"><defs><style>.a{fill:#505050;}</style></defs><g transform="translate(-99.551 -126.981)"><path class="a" d="M139.907,165.841h0a6.64,6.64,0,1,0,6.641,6.64A6.646,6.646,0,0,0,139.906,165.841Zm2.961,6.639a2.961,2.961,0,1,1-2.962-2.961A2.968,2.968,0,0,1,142.868,172.48Z"/><path class="a" d="M177.914,183.667a5.618,5.618,0,0,0-6.95-8.045c-1.032-1.041-2.142-2.094-3.306-3.14a72.753,72.753,0,0,0,5.389-5.351l0,0c6.494-7.229,8.659-13.246,6.261-17.4-3.04-5.266-12.1-5.72-25.528-1.285-2.878-13.849-7.8-21.465-13.876-21.465-2.313,0-5.725,1.229-8.938,7.027a5.613,5.613,0,0,0-3.858,10.02c-.418,1.528-.772,2.982-1.077,4.419-13.432-4.43-22.492-3.981-25.53,1.283-2.4,4.152-.233,10.169,6.263,17.4a72.919,72.919,0,0,0,5.387,5.351,72.6,72.6,0,0,0-5.391,5.352c-6.5,7.23-8.66,13.246-6.261,17.4,1.114,1.932,3.768,4.235,10.077,4.235.154,0,.312,0,.472-.006.052.113.108.226.17.341a5.628,5.628,0,0,0,10.446-2.013c1.529-.4,2.965-.82,4.363-1.276,2.88,13.85,7.8,21.469,13.877,21.469s11-7.618,13.877-21.471c6.065,2,11.271,3.013,15.481,3.013,5.021,0,8.4-1.444,10.047-4.292,1.155-2,1.8-5.565-1.6-11.235C177.78,183.888,177.85,183.778,177.914,183.667Zm-4.058-4.233a1.637,1.637,0,0,1,.6,2.22,1.684,1.684,0,0,1-2.245.6,1.636,1.636,0,0,1-.644-2.218,1.632,1.632,0,0,1,2.222-.641l.313-.4-.264.425Zm-17.828-11.088c1.933,1.373,3.767,2.761,5.467,4.136-1.727,1.4-3.559,2.788-5.463,4.138.043-1.38.065-2.768.065-4.14C156.1,171.151,156.074,169.79,156.028,168.346Zm8.568,1.512c-2.827-2.315-5.791-4.516-8.819-6.547-.264-3.786-.685-7.446-1.252-10.888,10.923-3.626,19.465-3.911,21.322-.692,1.364,2.366-.848,7.242-5.772,12.723A69.494,69.494,0,0,1,164.6,169.858Zm-8.823,11.8c3.033-2.033,6-4.235,8.822-6.55,1.208,1.07,2.351,2.147,3.411,3.21a5.611,5.611,0,0,0,6.412,7.98c1.761,3.02,2.269,5.473,1.428,6.931-1.854,3.216-10.4,2.932-21.323-.689C155.088,189.1,155.509,185.441,155.773,181.66Zm-4.216,2.714c-.219,2.319-.506,4.6-.858,6.8-2.087-.8-4.206-1.69-6.319-2.659,1.32-.706,2.514-1.367,3.627-2.008S150.276,185.168,151.557,184.374Zm-1.588,10.791c-2.32,11.273-6.345,18.816-10.063,18.816s-7.742-7.544-10.063-18.819c3.408-1.286,6.791-2.751,10.064-4.358C143.316,192.466,146.7,193.933,149.969,195.165ZM131.816,186.5c1.137.658,2.346,1.331,3.6,2-2.168.994-4.279,1.887-6.3,2.663-.35-2.2-.638-4.476-.856-6.793C129.425,185.093,130.615,185.806,131.816,186.5Zm-1.229-45.265a1.632,1.632,0,1,1,1.632-1.632A1.634,1.634,0,0,1,130.587,141.237Zm5.631-1.6a5.609,5.609,0,0,0-1.606-3.949c1.739-3.042,3.611-4.711,5.294-4.711,3.714,0,7.739,7.542,10.064,18.814-3.263,1.229-6.645,2.7-10.064,4.361-3.4-1.66-6.785-3.126-10.065-4.362.311-1.52.67-3.023,1.09-4.57A5.622,5.622,0,0,0,136.218,139.641Zm3.677,46.7c-1.994-1.016-4.04-2.126-6.085-3.3-2.022-1.167-4.009-2.386-5.911-3.626-.119-2.238-.181-4.569-.186-6.931,0-2.215.064-4.547.192-6.937,1.892-1.229,3.877-2.447,5.9-3.62,2.051-1.183,4.1-2.295,6.1-3.308,1.989,1.014,4.038,2.125,6.1,3.308,1.992,1.151,3.98,2.371,5.911,3.628.118,2.232.18,4.562.184,6.93s-.063,4.708-.186,6.929c-1.9,1.236-3.888,2.455-5.911,3.627C144.077,184.148,142.024,185.258,139.9,186.34Zm-4.461-29.891c-1.289.69-2.481,1.352-3.622,2.01s-2.324,1.366-3.537,2.118c.223-2.372.505-4.647.843-6.784C131.2,154.591,133.321,155.482,135.434,156.449ZM148,158.46h0c-1.152-.665-2.367-1.339-3.621-2.011,2.116-.969,4.233-1.859,6.314-2.655.352,2.2.639,4.476.858,6.793C150.389,159.866,149.2,159.153,148,158.46Zm-32.786,11.394a69.786,69.786,0,0,1-5.479-5.4l-.162-.178c-4.809-5.411-6.958-10.206-5.609-12.545,1.855-3.216,10.4-2.933,21.329.689-.59,3.6-1.012,7.257-1.257,10.882C121.007,165.336,118.041,167.538,115.217,169.854Zm8.568,6.767c-1.9-1.349-3.735-2.737-5.466-4.14,1.731-1.4,3.567-2.791,5.474-4.143-.05,1.517-.073,2.853-.073,4.142C123.718,173.8,123.739,175.161,123.785,176.621Zm-8.566-1.51c2.821,2.314,5.786,4.515,8.821,6.549.264,3.785.685,7.443,1.251,10.883-1.47.488-2.948.929-4.5,1.339a5.633,5.633,0,0,0-10.115,1.577c-3.475.005-5.868-.769-6.709-2.225-1.364-2.366.847-7.242,5.771-12.723A69.778,69.778,0,0,1,115.219,175.111Zm1.7,23.293a1.683,1.683,0,0,1-2.235-.6,1.634,1.634,0,0,1,.6-2.23,1.646,1.646,0,0,1,.816-.219h0a1.632,1.632,0,0,1,1.631,1.629A1.641,1.641,0,0,1,116.916,198.4Z"/></g></svg>