<svg xmlns="http://www.w3.org/2000/svg" width="57.503" height="91.501" viewBox="0 0 57.503 91.501"><defs><style>.a{fill:#505050;}</style></defs><path class="a" d="M911.591,182.85l-.4-.142V145a8.667,8.667,0,0,0-11.559-8.5l-.8.28v-1.054a8.9,8.9,0,0,0-7.232-8.877,7.988,7.988,0,0,0-1.455-.12,8.608,8.608,0,0,0-8.528,7.247,8.719,8.719,0,0,0-.117,1.423v1.379l-.8-.281a8.664,8.664,0,0,0-11.557,8.5v18.816h-.625a3.227,3.227,0,0,0-.48.047l-.357.043a2.327,2.327,0,0,1-.311.01l-.064.7-.206-.678-.178.046c-.086.016-.169.039-.349.088l-.228.064a8.57,8.57,0,0,0-.933.288c-.281.117-.556.25-.832.4l-.193.1c-.09.046-.185.094-.274.151a8.722,8.722,0,0,0-4.242,7.409v26.481a19.363,19.363,0,0,0,19.267,19.267H898.1a19.362,19.362,0,0,0,19.267-19.267v-7.941A8.721,8.721,0,0,0,911.591,182.85ZM877.2,184.843v-12.36a8.643,8.643,0,0,0-2.89-6.428l-.2-.176V145.034a4,4,0,0,1,3.005-3.986h.662v-.069a3.7,3.7,0,0,1,3.718,3.7v27.206h4.975V135.4a3.709,3.709,0,0,1,3.691-3.7,3.889,3.889,0,0,1,.686.065,3.99,3.99,0,0,1,3.01,3.964v36.145h4.972V144.677a3.7,3.7,0,0,1,3.687-3.7,3.854,3.854,0,0,1,.693.066,3.985,3.985,0,0,1,3.008,3.962v37.35H894.753a10.212,10.212,0,0,0,.021,20.424h7.147v-4.973H894.8a5.239,5.239,0,1,1,0-10.477h13.9a3.715,3.715,0,0,1,3.7,3.694v7.939A14.368,14.368,0,0,1,898.1,213.258H879.135a14.366,14.366,0,0,1-14.294-14.3v-6.285l.811.3a8.521,8.521,0,0,0,2.882.533A8.707,8.707,0,0,0,877.2,184.843Zm-9.846-16.178.136.324a3.583,3.583,0,0,1,1.044-.2,3.706,3.706,0,0,1,3.693,3.693v12.483a3.7,3.7,0,0,1-3.692,3.637h-.056a3.692,3.692,0,0,1-3.637-3.759V172.816a4.229,4.229,0,0,1,1.641-3.336,3.578,3.578,0,0,1,.358-.235,3.186,3.186,0,0,1,.609-.243Z" transform="translate(-859.865 -126.73)"/></svg>