<svg xmlns="http://www.w3.org/2000/svg" width="21.999" height="22" viewBox="0 0 21.999 22"><defs><style>.a{fill:#505050;}</style></defs><g transform="translate(-2033.403 -11150.75)"><path class="a" d="M2104.742,11217.918a2.629,2.629,0,1,0,2.629,2.63A2.629,2.629,0,0,0,2104.742,11217.918Z" transform="translate(-60.117 -58.768)"/><path class="a" d="M2077.032,11185.107h-5.146a4.132,4.132,0,0,0-4.131,4.131v5.146a4.13,4.13,0,0,0,4.131,4.13h5.146a4.13,4.13,0,0,0,4.13-4.13v-5.146A4.132,4.132,0,0,0,2077.032,11185.107Zm-2.351,11.1a4.37,4.37,0,1,1,4.37-4.37A4.371,4.371,0,0,1,2074.681,11196.21Zm4.067-7.7a1.112,1.112,0,1,1,1.112-1.11A1.11,1.11,0,0,1,2078.749,11188.513Z" transform="translate(-30.056 -30.061)"/><path class="a" d="M2050.884,11150.75h-12.962a4.519,4.519,0,0,0-4.519,4.52v12.961a4.519,4.519,0,0,0,4.519,4.52h12.962a4.519,4.519,0,0,0,4.519-4.52v-12.961A4.519,4.519,0,0,0,2050.884,11150.75Zm1.815,14.184a5.112,5.112,0,0,1-5.112,5.113h-6.368a5.113,5.113,0,0,1-5.112-5.113v-6.367a5.112,5.112,0,0,1,5.112-5.111h6.368a5.112,5.112,0,0,1,5.112,5.111Z" transform="translate(0)"/></g></svg>