<svg xmlns="http://www.w3.org/2000/svg" width="85.201" height="90.998" viewBox="0 0 85.201 90.998"><defs><style>.a{fill:#505050;}</style></defs><g transform="translate(-475.042 -126.983)"><path class="a" d="M487.474,201.361h18.482a2.3,2.3,0,1,0,0-4.6H487.474a2.3,2.3,0,1,0,0,4.6Z"/><path class="a" d="M552.278,202.92c4.814-10.3,7.7-20.038-3.209-33.737a2.3,2.3,0,0,0-.708-.578,12.3,12.3,0,0,0-.235-12.723l10.411-10.41a2.3,2.3,0,0,0,0-3.253L543.97,127.653a2.313,2.313,0,0,0-3.256,0L498.1,170.279a2.3,2.3,0,0,0,0,3.252l2.018,2.018-4.51,4.258a2.3,2.3,0,0,0,0,3.253l7.529,7.529a2.287,2.287,0,0,0,1.625.675h.008a2.293,2.293,0,0,0,1.555-.607l4.633-4.269,1.7,1.705a2.316,2.316,0,0,0,1.628.675h0a2.313,2.313,0,0,0,1.625-.676l15.107-15.106a12.366,12.366,0,0,0,3.4,1.469c5.049,11.133,2.707,18.017-4.128,28.24H485.269c-5.639,0-10.227,4.337-10.227,9.668v3.318a2.3,2.3,0,0,0,2.3,2.3h80.6a2.3,2.3,0,0,0,2.3-2.3V212.35A9.8,9.8,0,0,0,552.278,202.92ZM507.7,183.131l-2.871,2.646-4.3-4.3,2.838-2.678Zm-4.72-11.226,39.366-39.372,11.313,11.314-8.646,8.647a12.353,12.353,0,0,0-7.426-2.486h0a12.412,12.412,0,0,0-9.95,19.861l-13.345,13.344Zm34.6-17.3a7.835,7.835,0,1,1,0,15.67h0a7.835,7.835,0,0,1,0-15.67Zm7.891,17.432c.013.017.021.036.035.052,9.4,11.8,7.459,19.112,1.155,31.887a2.3,2.3,0,0,0,2.063,3.317h1.314a5.376,5.376,0,0,1,5.6,5.068v1.018h-76v-.993a5.41,5.41,0,0,1,5.627-5.093H531.52a2.3,2.3,0,0,0,1.9-1c7.541-11.052,10.8-19.561,6.092-31.581A12.4,12.4,0,0,0,545.471,172.039Z"/></g></svg>