<?xml version="1.0" encoding="utf-8"?>
<!-- Generator: Adobe Illustrator 23.0.2, SVG Export Plug-In . SVG Version: 6.00 Build 0)  -->
<svg version="1.1" id="Layer_1" xmlns="http://www.w3.org/2000/svg" xmlns:xlink="http://www.w3.org/1999/xlink" x="0px" y="0px"
	 viewBox="0 0 512 512" style="enable-background:new 0 0 512 512;" xml:space="preserve">
<style type="text/css">
	.st0{fill:#7DBE00;}
</style>
<g id="surface1">
	<path class="st0" d="M253.5,158.9c-53.2,0-96.4,43.3-96.4,96.6c0,53.3,43.3,96.6,96.4,96.6c53.2,0,96.4-43.3,96.4-96.6
		C349.9,202.2,306.7,158.9,253.5,158.9z M310.8,237.3l-69.1,69.2c-2.9,2.9-6.7,4.4-10.5,4.4s-7.6-1.5-10.5-4.4l-26.4-26.4
		c-5.8-5.8-5.8-15.2,0-21c5.8-5.8,15.2-5.8,21,0l15.9,15.9l58.6-58.7c5.8-5.8,15.2-5.8,21,0C316.6,222.1,316.6,231.5,310.8,237.3z"
		/>
	<path class="st0" d="M468.5,139.6l0-0.4c-0.2-4.9-0.4-10-0.5-15.8c-0.4-28-22.6-51.1-50.5-52.6C359.3,67.5,314.3,48.5,275.8,11
		l-0.3-0.3c-12.5-11.5-31.5-11.5-44,0l-0.3,0.3c-38.5,37.6-83.5,56.6-141.7,59.8C61.6,72.3,39.4,95.5,39,123.4
		c-0.1,5.7-0.2,10.8-0.5,15.8l0,0.9c-1.1,59.4-2.5,133.4,22.2,200.6c13.6,36.9,34.2,69,61.1,95.4c30.7,30,71,53.9,119.7,70.9
		c1.6,0.6,3.2,1,4.9,1.3c2.4,0.5,4.7,0.7,7.1,0.7s4.8-0.2,7.1-0.7c1.7-0.3,3.3-0.8,4.9-1.3c48.6-17,88.8-40.9,119.5-70.9
		c27-26.4,47.6-58.5,61.1-95.4C471,273.2,469.6,199.1,468.5,139.6z M253.5,381.9c-69.6,0-126.1-56.7-126.1-126.4
		s56.6-126.4,126.1-126.4c69.5,0,126.1,56.7,126.1,126.4S323,381.9,253.5,381.9z"/>
</g>
</svg>
